#N canvas 539 0 705 647 12;
#X obj 23 19 loadbang;
#X msg 23 44 \; pd dsp 1;
#X obj 161 62 int 1;
#X obj 196 155 + 1;
#X obj 219 236 int 0;
#X obj 161 154 f 0;
#X obj 219 208 sel 8;
#X obj 161 107 metro 100;
#X obj 161 326 mtof;
#X obj 199 551 *~ 0.4;
#X obj 199 576 dac~;
#X obj 161 262 t f b;
#X obj 162 471 *~;
#X msg 231 287 0 0 0 \, 1 5 0 \, 0 85 5;
#X obj 233 427 vline~;
#X obj 104 370 phasor~;
#X obj 161 370 * 0.999;
#X obj 161 395 phasor~;
#X obj 223 396 phasor~;
#X obj 223 371 * 1.001;
#X obj 161 505 vcf~ 5;
#X obj 316 441 sig~;
#X obj 316 416 * 5;
#X obj 161 301 + 48;
#X connect 0 0 1 0;
#X connect 0 0 2 0;
#X connect 2 0 7 0;
#X connect 3 0 5 1;
#X connect 4 0 5 1;
#X connect 5 0 3 0;
#X connect 5 0 6 0;
#X connect 5 0 11 0;
#X connect 6 0 4 0;
#X connect 7 0 5 0;
#X connect 8 0 15 0;
#X connect 8 0 16 0;
#X connect 8 0 19 0;
#X connect 8 0 22 0;
#X connect 9 0 10 0;
#X connect 9 0 10 1;
#X connect 11 0 23 0;
#X connect 11 1 13 0;
#X connect 12 0 20 0;
#X connect 13 0 14 0;
#X connect 14 0 12 1;
#X connect 15 0 12 0;
#X connect 16 0 17 0;
#X connect 17 0 12 0;
#X connect 18 0 12 0;
#X connect 19 0 18 0;
#X connect 20 0 9 0;
#X connect 21 0 20 1;
#X connect 22 0 21 0;
#X connect 23 0 8 0;
