#N canvas 454 249 450 300 12;
#X obj 230 148 osc~ 440;
#X obj 265 251 dac~;
#X obj 229 75 metro 1000;
#X obj 229 21 loadbang;
#X obj 229 45 int 1;
#X obj 229 105 tgl 15 0 empty empty empty 17 7 0 10 #fcfcfc #000000
#000000 0 1;
#X obj 230 172 *~;
#X obj 306 172 *~;
#X obj 306 148 noise~;
#X obj 230 207 *~ 0.4;
#X obj 306 196 *~ 0.25;
#X obj 302 108 expr 1 - $f1;
#X msg 77 116 \; pd dsp 1;
#X connect 0 0 6 0;
#X connect 2 0 5 0;
#X connect 3 0 4 0;
#X connect 3 0 12 0;
#X connect 4 0 2 0;
#X connect 5 0 6 1;
#X connect 5 0 11 0;
#X connect 6 0 9 0;
#X connect 7 0 10 0;
#X connect 8 0 7 0;
#X connect 9 0 1 0;
#X connect 10 0 1 1;
#X connect 11 0 7 1;
