#N canvas 844 375 450 300 12;
#X obj 148 75 loadbang;
#X obj 148 100 int 1;
#X obj 148 125 metro 1000;
#X obj 148 227 print message;
#X msg 148 196 \$1: ciao mondo!;
#X obj 148 155 f;
#X obj 195 156 + 1;
#X connect 0 0 1 0;
#X connect 1 0 2 0;
#X connect 2 0 5 0;
#X connect 4 0 3 0;
#X connect 5 0 6 0;
#X connect 5 0 4 0;
#X connect 6 0 5 1;
